<?xml version="1.0" encoding="UTF-8"?><svg xmlns="http://www.w3.org/2000/svg" xmlns:xlink="http://www.w3.org/1999/xlink" fill-opacity="1" color-rendering="auto" color-interpolation="auto" stroke="black" text-rendering="auto" stroke-linecap="square" width="936" stroke-miterlimit="10" stroke-opacity="1" shape-rendering="auto" fill="black" stroke-dasharray="none" font-weight="normal" stroke-width="1" height="1104" font-family="'Dialog'" font-style="normal" stroke-linejoin="miter" font-size="12" stroke-dashoffset="0" image-rendering="auto">
  <!--Generated by ySVG-->
  <defs id="genericDefs"/>
  <g>
    <g fill="white" transform="translate(-69,176)" stroke="white">
      <rect x="69" width="936" height="1104" y="-176" clip-path="url(#clipPath2)" stroke="none"/>
    </g>
    <g fill="rgb(239,239,239)" transform="matrix(1,0,0,1,-69,176)" stroke="rgb(239,239,239)">
      <rect x="84.0488" width="905.7708" height="1072.9688" y="-160.5709" clip-path="url(#clipPath2)" stroke="none"/>
    </g>
    <g font-size="16" stroke-miterlimit="1.45" font-family="sans-serif" transform="matrix(1,0,0,1,-69,176)" stroke-linecap="butt">
      <text x="696.5696" xml:space="preserve" y="902.8823" clip-path="url(#clipPath2)" stroke="none">Laser-cutter High level breakdown - v1.1</text>
    </g>
    <g fill="gray" transform="matrix(1,0,0,1,-69,176)" stroke="gray">
      <rect x="125" y="77" clip-path="url(#clipPath2)" width="155" rx="1.5" ry="1.5" height="137" stroke="none"/>
      <path fill="url(#linearGradient1)" d="M125.75 80 Q125.75 77.75 128 77.75 L222.75 77.75 Q225 77.75 225 80 Q225 82.25 177.625 134.05 Q130.25 185.85 128 185.85 Q125.75 185.85 125.75 183.6 Z" clip-path="url(#clipPath2)" stroke="none"/>
    </g>
    <g font-size="17" stroke-linecap="butt" transform="matrix(1,0,0,1,-69,176)" fill="white" font-family="sans-serif" stroke="white" stroke-miterlimit="1.45">
      <text x="163.283" xml:space="preserve" y="141.7646" clip-path="url(#clipPath2)" stroke="none">41v power</text>
      <text x="127.8801" xml:space="preserve" y="162.5913" clip-path="url(#clipPath2)" stroke="none">(former printer alim)</text>
    </g>
    <g fill="gray" transform="matrix(1,0,0,1,-69,176)" stroke="gray">
      <rect x="348" y="77" clip-path="url(#clipPath2)" width="155" rx="1.5" ry="1.5" height="137" stroke="none"/>
      <path fill="url(#linearGradient2)" d="M348.75 80 Q348.75 77.75 351 77.75 L445.75 77.75 Q448 77.75 448 80 Q448 82.25 400.625 134.05 Q353.25 185.85 351 185.85 Q348.75 185.85 348.75 183.6 Z" clip-path="url(#clipPath2)" stroke="none"/>
    </g>
    <g font-size="18" stroke-linecap="butt" transform="matrix(1,0,0,1,-69,176)" fill="white" font-family="sans-serif" stroke="white" stroke-miterlimit="1.45">
      <text x="371.4648" xml:space="preserve" y="130.519" clip-path="url(#clipPath2)" stroke="none">7-8 diodes in </text>
      <text x="363.4668" xml:space="preserve" y="152.5708" clip-path="url(#clipPath2)" stroke="none">serie to reduce </text>
      <text x="364.2051" xml:space="preserve" y="174.6226" clip-path="url(#clipPath2)" stroke="none">voltage to ~35v</text>
    </g>
    <g fill="gray" transform="matrix(1,0,0,1,-69,176)" stroke="gray">
      <rect x="571" y="77" clip-path="url(#clipPath2)" width="155" rx="1.5" ry="1.5" height="137" stroke="none"/>
      <path fill="url(#linearGradient3)" d="M571.75 80 Q571.75 77.75 574 77.75 L668.75 77.75 Q671 77.75 671 80 Q671 82.25 623.625 134.05 Q576.25 185.85 574 185.85 Q571.75 185.85 571.75 183.6 Z" clip-path="url(#clipPath2)" stroke="none"/>
    </g>
    <g font-size="18" stroke-linecap="butt" transform="matrix(1,0,0,1,-69,176)" fill="white" font-family="sans-serif" stroke="white" stroke-miterlimit="1.45">
      <text x="579.4883" xml:space="preserve" y="141.5449" clip-path="url(#clipPath2)" stroke="none">DC-DC converter</text>
      <text x="582.4634" xml:space="preserve" y="163.5967" clip-path="url(#clipPath2)" stroke="none">to 12/5v for logic</text>
    </g>
    <g fill="red" transform="matrix(1,0,0,1,-69,176)" stroke="red">
      <rect x="348" y="297" clip-path="url(#clipPath2)" width="155" rx="1.5" ry="1.5" height="137" stroke="none"/>
      <path fill="url(#linearGradient4)" d="M348.75 300 Q348.75 297.75 351 297.75 L445.75 297.75 Q448 297.75 448 300 Q448 302.25 400.625 354.05 Q353.25 405.85 351 405.85 Q348.75 405.85 348.75 403.6 Z" clip-path="url(#clipPath2)" stroke="none"/>
    </g>
    <g font-size="18" stroke-linecap="butt" transform="matrix(1,0,0,1,-69,176)" fill="white" font-family="sans-serif" stroke="white" stroke-miterlimit="1.45">
      <text x="377.4897" xml:space="preserve" y="361.5449" clip-path="url(#clipPath2)" stroke="none">Motor driver</text>
      <text x="384.9912" xml:space="preserve" y="383.5967" clip-path="url(#clipPath2)" stroke="none">(H-bridge)</text>
    </g>
    <g fill="rgb(255,102,0)" transform="matrix(1,0,0,1,-69,176)" stroke="rgb(255,102,0)">
      <rect x="125" y="297" clip-path="url(#clipPath2)" width="155" rx="1.5" ry="1.5" height="137" stroke="none"/>
      <path fill="url(#linearGradient5)" d="M125.75 300 Q125.75 297.75 128 297.75 L222.75 297.75 Q225 297.75 225 300 Q225 302.25 177.625 354.05 Q130.25 405.85 128 405.85 Q125.75 405.85 125.75 403.6 Z" clip-path="url(#clipPath2)" stroke="none"/>
    </g>
    <g font-size="18" stroke-linecap="butt" transform="matrix(1,0,0,1,-69,176)" fill="white" font-family="sans-serif" stroke="white" stroke-miterlimit="1.45">
      <text x="136.9863" xml:space="preserve" y="361.5449" clip-path="url(#clipPath2)" stroke="none">X axis DC motor</text>
      <text x="148.4736" xml:space="preserve" y="383.5967" clip-path="url(#clipPath2)" stroke="none">(printer head)</text>
    </g>
    <g fill="teal" transform="matrix(1,0,0,1,-69,176)" stroke="teal">
      <rect x="571" y="297" clip-path="url(#clipPath2)" width="155" rx="1.5" ry="1.5" height="137" stroke="none"/>
      <path fill="url(#linearGradient6)" d="M571.75 300 Q571.75 297.75 574 297.75 L668.75 297.75 Q671 297.75 671 300 Q671 302.25 623.625 354.05 Q576.25 405.85 574 405.85 Q571.75 405.85 571.75 403.6 Z" clip-path="url(#clipPath2)" stroke="none"/>
    </g>
    <g font-size="18" stroke-linecap="butt" transform="matrix(1,0,0,1,-69,176)" fill="white" font-family="sans-serif" stroke="white" stroke-miterlimit="1.45">
      <text x="582.96" xml:space="preserve" y="361.5449" clip-path="url(#clipPath2)" stroke="none">Arduino or clone</text>
      <text x="576.9658" xml:space="preserve" y="383.5967" clip-path="url(#clipPath2)" stroke="none">(logic and control)</text>
    </g>
    <g transform="matrix(1,0,0,1,768.687,518.531)">
      <g clip-path="url(#clipPath3)">
        <svg xmlns:a="http://ns.adobe.com/AdobeSVGViewerExtensions/3.0/" xml:space="preserve" opacity="1" margin-top="0" indent="0" writing-mode="lr-tb" stop-color="rgb(0, 0, 0)" shape-rendering="auto" glyph-orientation-horizontal="0deg" color-profile="auto" lighting-color="rgb(255, 255, 255)" color="rgb(0, 0, 0)" font-weight="400" alignment-baseline="auto" font-style="normal" version="1.1" color-interpolation-filters="linearrgb" text-anchor="start" stroke-linecap="butt" color-interpolation="srgb" font-variant="normal" margin-left="0" solid-color="rgb(0, 0, 0)" word-spacing="normal" fill-opacity="1" text-rendering="auto" clip-path="none" text-decoration="none" letter-spacing="normal" viewBox="-0.064 -0.075 68 46" glyph-orientation-vertical="auto" margin-right="0" display="inline" font-size-adjust="none" margin-bottom="0" overflow="visible" fill="rgb(0, 0, 0)" font-stretch="normal" stroke-dasharray="none" stroke-miterlimit="4" stop-opacity="1" color-rendering="auto" font-size="12" pointer-events="visiblepainted" mask="none" direction="ltr" baseline-shift="baseline" enable-background="new -0.064 -0.075 68 46" fill-rule="nonzero" image-rendering="auto" solid-opacity="1" stroke-dashoffset="0" width="68px" marker-end="none" clip="auto" cursor="auto" stroke="none" filter="none" visibility="visible" kerning="auto" stroke-width="1" font-family="&quot;Arial&quot;,&quot;Helvetica&quot;,sans-serif" flood-opacity="1" clip-rule="nonzero" src="none" height="46px" text-align="inherit" line-height="normal" unicode-bidi="normal" stroke-linejoin="miter" stroke-opacity="1" flood-color="rgb(0, 0, 0)" dominant-baseline="auto" marker-start="none" x="0px" marker-mid="none" y="0px">
<defs>
<linearGradient x1="125" gradientUnits="userSpaceOnUse" x2="179.7948" y1="77" y2="126.992" id="linearGradient1" spreadMethod="pad">
              <stop stop-opacity="0.8627" stop-color="rgb(255,255,255)" offset="0%"/>
              <stop stop-opacity="0.1255" stop-color="rgb(255,255,255)" offset="100%"/>
            </linearGradient>
            <linearGradient x1="348" gradientUnits="userSpaceOnUse" x2="402.7947" y1="77" y2="126.992" id="linearGradient2" spreadMethod="pad">
              <stop stop-opacity="0.8627" stop-color="rgb(255,255,255)" offset="0%"/>
              <stop stop-opacity="0.1255" stop-color="rgb(255,255,255)" offset="100%"/>
            </linearGradient>
            <linearGradient x1="571" gradientUnits="userSpaceOnUse" x2="625.7947" y1="77" y2="126.992" id="linearGradient3" spreadMethod="pad">
              <stop stop-opacity="0.8627" stop-color="rgb(255,255,255)" offset="0%"/>
              <stop stop-opacity="0.1255" stop-color="rgb(255,255,255)" offset="100%"/>
            </linearGradient>
            <linearGradient x1="348" gradientUnits="userSpaceOnUse" x2="402.7947" y1="297" y2="346.992" id="linearGradient4" spreadMethod="pad">
              <stop stop-opacity="0.8627" stop-color="rgb(255,255,255)" offset="0%"/>
              <stop stop-opacity="0.1255" stop-color="rgb(255,255,255)" offset="100%"/>
            </linearGradient>
            <linearGradient x1="125" gradientUnits="userSpaceOnUse" x2="179.7948" y1="297" y2="346.992" id="linearGradient5" spreadMethod="pad">
              <stop stop-opacity="0.8627" stop-color="rgb(255,255,255)" offset="0%"/>
              <stop stop-opacity="0.1255" stop-color="rgb(255,255,255)" offset="100%"/>
            </linearGradient>
            <linearGradient x1="571" gradientUnits="userSpaceOnUse" x2="625.7947" y1="297" y2="346.992" id="linearGradient6" spreadMethod="pad">
              <stop stop-opacity="0.8627" stop-color="rgb(255,255,255)" offset="0%"/>
              <stop stop-opacity="0.1255" stop-color="rgb(255,255,255)" offset="100%"/>
            </linearGradient>
            <linearGradient x1="794" gradientUnits="userSpaceOnUse" x2="848.7947" y1="77" y2="126.992" id="linearGradient7" spreadMethod="pad">
              <stop stop-opacity="0.8627" stop-color="rgb(255,255,255)" offset="0%"/>
              <stop stop-opacity="0.1255" stop-color="rgb(255,255,255)" offset="100%"/>
            </linearGradient>
            <linearGradient x1="571" gradientUnits="userSpaceOnUse" x2="625.7947" y1="-143" y2="-93.008" id="linearGradient8" spreadMethod="pad">
              <stop stop-opacity="0.8627" stop-color="rgb(255,255,255)" offset="0%"/>
              <stop stop-opacity="0.1255" stop-color="rgb(255,255,255)" offset="100%"/>
            </linearGradient>
            <linearGradient x1="348" gradientUnits="userSpaceOnUse" x2="402.7947" y1="517" y2="566.992" id="linearGradient9" spreadMethod="pad">
              <stop stop-opacity="0.8627" stop-color="rgb(255,255,255)" offset="0%"/>
              <stop stop-opacity="0.1255" stop-color="rgb(255,255,255)" offset="100%"/>
            </linearGradient>
            <linearGradient x1="348" gradientUnits="userSpaceOnUse" x2="402.7947" y1="737" y2="786.992" id="linearGradient10" spreadMethod="pad">
              <stop stop-opacity="0.8627" stop-color="rgb(255,255,255)" offset="0%"/>
              <stop stop-opacity="0.1255" stop-color="rgb(255,255,255)" offset="100%"/>
            </linearGradient>
            <linearGradient x1="571" gradientUnits="userSpaceOnUse" x2="625.7947" y1="737" y2="786.992" id="linearGradient11" spreadMethod="pad">
              <stop stop-opacity="0.8627" stop-color="rgb(255,255,255)" offset="0%"/>
              <stop stop-opacity="0.1255" stop-color="rgb(255,255,255)" offset="100%"/>
            </linearGradient>
            <linearGradient x1="571" gradientUnits="userSpaceOnUse" x2="625.7947" y1="517" y2="566.992" id="linearGradient12" spreadMethod="pad">
              <stop stop-opacity="0.8627" stop-color="rgb(255,255,255)" offset="0%"/>
              <stop stop-opacity="0.1255" stop-color="rgb(255,255,255)" offset="100%"/>
            </linearGradient>
            <linearGradient x1="794" gradientUnits="userSpaceOnUse" x2="848.7947" y1="-143" y2="-93.008" id="linearGradient13" spreadMethod="pad">
              <stop stop-opacity="0.8627" stop-color="rgb(255,255,255)" offset="0%"/>
              <stop stop-opacity="0.1255" stop-color="rgb(255,255,255)" offset="100%"/>
            </linearGradient>
            <linearGradient x1="125" gradientUnits="userSpaceOnUse" x2="179.7948" y1="737" y2="786.992" id="linearGradient14" spreadMethod="pad">
              <stop stop-opacity="0.8627" stop-color="rgb(255,255,255)" offset="0%"/>
              <stop stop-opacity="0.1255" stop-color="rgb(255,255,255)" offset="100%"/>
            </linearGradient>
            <linearGradient x1="125" gradientUnits="userSpaceOnUse" x2="179.7948" y1="517" y2="566.992" id="linearGradient15" spreadMethod="pad">
              <stop stop-opacity="0.8627" stop-color="rgb(255,255,255)" offset="0%"/>
              <stop stop-opacity="0.1255" stop-color="rgb(255,255,255)" offset="100%"/>
            </linearGradient>
            <clipPath clipPathUnits="userSpaceOnUse" id="clipPath1">
              <path d="M0 0 L936 0 L936 1104 L0 1104 L0 0 Z"/>
            </clipPath>
            <clipPath clipPathUnits="userSpaceOnUse" id="clipPath2">
              <path d="M69 -176 L1005 -176 L1005 928 L69 928 L69 -176 Z"/>
            </clipPath>
            <clipPath clipPathUnits="userSpaceOnUse" id="clipPath3">
              <path d="M-768.687 -518.531 L167.313 -518.531 L167.313 585.469 L-768.687 585.469 L-768.687 -518.531 Z"/>
            </clipPath>
          </defs>
<radialGradient gradientTransform="matrix(1.15 0 0 1 -526.6598 -1982.4023)" gradientUnits="userSpaceOnUse" r="21.6001" cx="478.8413" id="svg1.SVGID_1_" cy="1991.2729" xml:id="svg1.SVGID_1_">
	<stop offset="0" style="stop-color:#F2F2F2"/>
	<stop offset="1" style="stop-color:#8D8D8D"/>
</radialGradient>
<path fill="url(#svg1.SVGID_1_)" d="M10.263,1.903c0-0.987,0.807-1.794,1.794-1.794h43.279c0.986,0,1.795,0.807,1.795,1.794v26.978  c0,0.987-0.809,1.794-1.795,1.794h-43.28c-0.987,0-1.794-0.807-1.794-1.794L10.263,1.903L10.263,1.903z"/>
<path stroke-linecap="round" display="none" fill="none" stroke-linejoin="round" d="  M10.263,1.903c0-0.987,0.807-1.794,1.794-1.794h43.279c0.986,0,1.795,0.807,1.795,1.794v26.978c0,0.987-0.809,1.794-1.795,1.794  h-43.28c-0.987,0-1.794-0.807-1.794-1.794L10.263,1.903L10.263,1.903z" stroke="#3C89C9" stroke-width="0.2185" stroke-miterlimit="10"/>
<radialGradient gradientTransform="matrix(1.1935 0 0 1 -509.6731 -1982.4023)" gradientUnits="userSpaceOnUse" r="47.8462" cx="455.894" cy="1983.9624" id="svg1.SVGID_2_" fx="493.5344" fy="1977.5143" xml:id="svg1.SVGID_2_">
	<stop offset="0" style="stop-color:#4D4D4D"/>
	<stop offset="1" style="stop-color:#999999"/>
</radialGradient>
<path fill="url(#svg1.SVGID_2_)" d="M11.18,2.819c0-0.987,0.807-1.794,1.794-1.794h41.649c0.986,0,1.795,0.807,1.795,1.794v24.943  c0,0.985-0.809,1.794-1.795,1.794H12.974c-0.987,0-1.794-0.809-1.794-1.794V2.819z"/>
<radialGradient gradientTransform="matrix(1.1923 0 0 1 -510.1314 -1982.4023)" gradientUnits="userSpaceOnUse" r="30.6699" cx="456.8843" id="svg1.SVGID_3_" cy="1984.0386" xml:id="svg1.SVGID_3_">
	<stop offset="0" style="stop-color:#9CD7FF"/>
	<stop offset="1" style="stop-color:#3C89C9"/>
</radialGradient>
<path fill="url(#svg1.SVGID_3_)" d="M11.689,3.228c0-0.987,0.807-1.794,1.794-1.794h40.633c0.986,0,1.795,0.807,1.795,1.794v24.126  c0,0.986-0.809,1.794-1.795,1.794H13.483c-0.987,0-1.794-0.809-1.794-1.794V3.228z"/>
<path fill="#F2F2F2" opacity="0.24" d="M11.689,21.472V3.228c0-0.987,0.807-1.794,1.794-1.794h40.633  c0.986,0,1.795,0.807,1.795,1.794v9.454c0,0.987-10.518,5.21-18.256,6.795C29.917,21.062,11.689,21.472,11.689,21.472z"/>
<linearGradient gradientTransform="matrix(1 0 0 -1 -97.6001 -165.0498)" x1="131.3501" x2="131.3501" gradientUnits="userSpaceOnUse" y1="-212.2612" y2="-170.6274" id="svg1.SVGID_4_" xml:id="svg1.SVGID_4_">
	<stop offset="0" style="stop-color:#4D4D4D"/>
	<stop offset="0.0667" style="stop-color:#717171"/>
	<stop offset="0.069" style="stop-color:#757575"/>
	<stop offset="0.0831" style="stop-color:#8C8C8C"/>
	<stop offset="0.0996" style="stop-color:#9E9E9E"/>
	<stop offset="0.1196" style="stop-color:#AAAAAA"/>
	<stop offset="0.1466" style="stop-color:#B1B1B1"/>
	<stop offset="0.2121" style="stop-color:#B3B3B3"/>
	<stop offset="1" style="stop-color:#C5C5C5"/>
</linearGradient>
<path fill="url(#svg1.SVGID_4_)" d="M58.385,32.234c-0.689-0.856-2.154-1.559-3.254-1.559H12c-1.1,0-2.552,0.711-3.227,1.579  l-7.546,9.717C0,43.55,0.042,43.785,0,44.55v0.125c0.056,0.393,0.311,1.002,1.248,1.002h64.75c0.75,0.002,1.5-0.252,1.5-1.002V44.55  c0-0.813,0-0.813-1.254-2.559L58.385,32.234z"/>
<path fill="#F2F2F2" d="M58.385,32.234c-0.689-0.856-2.154-1.559-3.254-1.559H12  c-1.1,0-2.552,0.711-3.227,1.579l-7.055,9.085l58.098-7.33L58.385,32.234z" enable-background="new    " opacity="0.23"/>
<path fill="#6E6E6E" d="M59.75,37.205c0.344,0.431,0.172,0.783-0.377,0.783H8.249c-0.55,0-0.742-0.369-0.427-0.819l2.786-3.986  c0.315-0.45,1.023-0.819,1.573-0.819h42.729c0.551,0,1.279,0.354,1.623,0.783L59.75,37.205z"/>
<path fill="#6E6E6E" d="M40.43,41.906c0.072,0.217-0.057,0.395-0.285,0.395H26.727c-0.229,0-0.364-0.18-0.3-0.398l0.822-2.826  c0.064-0.221,0.303-0.399,0.532-0.399h11.167c0.229,0,0.475,0.179,0.547,0.396L40.43,41.906z"/>
</svg>
      </g>
    </g>
    <g fill="gray" transform="matrix(1,0,0,1,-69,176)" stroke="gray">
      <rect x="794" y="77" clip-path="url(#clipPath2)" width="155" rx="1.5" ry="1.5" height="137" stroke="none"/>
      <path fill="url(#linearGradient7)" d="M794.75 80 Q794.75 77.75 797 77.75 L891.75 77.75 Q894 77.75 894 80 Q894 82.25 846.625 134.05 Q799.25 185.85 797 185.85 Q794.75 185.85 794.75 183.6 Z" clip-path="url(#clipPath2)" stroke="none"/>
    </g>
    <g font-size="18" stroke-linecap="butt" transform="matrix(1,0,0,1,-69,176)" fill="white" font-family="sans-serif" stroke="white" stroke-miterlimit="1.45">
      <text x="823.9819" xml:space="preserve" y="141.5449" clip-path="url(#clipPath2)" stroke="none">Laser driver</text>
      <text x="800.9722" xml:space="preserve" y="163.5967" clip-path="url(#clipPath2)" stroke="none">(constant current)</text>
    </g>
    <g fill="rgb(255,102,0)" transform="matrix(1,0,0,1,-69,176)" stroke="rgb(255,102,0)">
      <rect x="571" y="-143" clip-path="url(#clipPath2)" width="155" rx="1.5" ry="1.5" height="137" stroke="none"/>
      <path fill="url(#linearGradient8)" d="M571.75 -140 Q571.75 -142.25 574 -142.25 L668.75 -142.25 Q671 -142.25 671 -140 Q671 -137.75 623.625 -85.95 Q576.25 -34.15 574 -34.15 Q571.75 -34.15 571.75 -36.4 Z" clip-path="url(#clipPath2)" stroke="none"/>
    </g>
    <g font-size="18" stroke-linecap="butt" transform="matrix(1,0,0,1,-69,176)" fill="white" font-family="sans-serif" stroke="white" stroke-miterlimit="1.45">
      <text x="625.9868" xml:space="preserve" y="-67.4292" clip-path="url(#clipPath2)" stroke="none">Laser</text>
    </g>
    <g fill="red" transform="matrix(1,0,0,1,-69,176)" stroke="red">
      <rect x="348" y="517" clip-path="url(#clipPath2)" width="155" rx="1.5" ry="1.5" height="137" stroke="none"/>
      <path fill="url(#linearGradient9)" d="M348.75 520 Q348.75 517.75 351 517.75 L445.75 517.75 Q448 517.75 448 520 Q448 522.25 400.625 574.05 Q353.25 625.85 351 625.85 Q348.75 625.85 348.75 623.6 Z" clip-path="url(#clipPath2)" stroke="none"/>
    </g>
    <g font-size="17" stroke-linecap="butt" transform="matrix(1,0,0,1,-69,176)" fill="white" font-family="sans-serif" stroke="white" stroke-miterlimit="1.45">
      <text x="367.3862" xml:space="preserve" y="560.938" clip-path="url(#clipPath2)" stroke="none">Position control</text>
      <text x="352.7478" xml:space="preserve" y="581.7646" clip-path="url(#clipPath2)" stroke="none">Simple Incremental</text>
      <text x="366.9089" xml:space="preserve" y="602.5913" clip-path="url(#clipPath2)" stroke="none">Encoder reader</text>
      <text x="396.6921" xml:space="preserve" y="623.418" clip-path="url(#clipPath2)" stroke="none">(X axis)</text>
    </g>
    <g fill="rgb(255,102,0)" transform="matrix(1,0,0,1,-69,176)" stroke="rgb(255,102,0)">
      <rect x="348" y="737" clip-path="url(#clipPath2)" width="155" rx="1.5" ry="1.5" height="137" stroke="none"/>
      <path fill="url(#linearGradient10)" d="M348.75 740 Q348.75 737.75 351 737.75 L445.75 737.75 Q448 737.75 448 740 Q448 742.25 400.625 794.05 Q353.25 845.85 351 845.85 Q348.75 845.85 348.75 843.6 Z" clip-path="url(#clipPath2)" stroke="none"/>
    </g>
    <g font-size="18" stroke-linecap="butt" transform="matrix(1,0,0,1,-69,176)" fill="white" font-family="sans-serif" stroke="white" stroke-miterlimit="1.45">
      <text x="365.9673" xml:space="preserve" y="801.5449" clip-path="url(#clipPath2)" stroke="none">X axis encoder</text>
      <text x="371.4736" xml:space="preserve" y="823.5967" clip-path="url(#clipPath2)" stroke="none">(printer head)</text>
    </g>
    <g fill="rgb(255,102,0)" transform="matrix(1,0,0,1,-69,176)" stroke="rgb(255,102,0)">
      <rect x="571" y="737" clip-path="url(#clipPath2)" width="155" rx="1.5" ry="1.5" height="137" stroke="none"/>
      <path fill="url(#linearGradient11)" d="M571.75 740 Q571.75 737.75 574 737.75 L668.75 737.75 Q671 737.75 671 740 Q671 742.25 623.625 794.05 Q576.25 845.85 574 845.85 Q571.75 845.85 571.75 843.6 Z" clip-path="url(#clipPath2)" stroke="none"/>
    </g>
    <g font-size="18" stroke-linecap="butt" transform="matrix(1,0,0,1,-69,176)" fill="white" font-family="sans-serif" stroke="white" stroke-miterlimit="1.45">
      <text x="589.9692" xml:space="preserve" y="790.519" clip-path="url(#clipPath2)" stroke="none">Y axis Stepper</text>
      <text x="593.4673" xml:space="preserve" y="812.5708" clip-path="url(#clipPath2)" stroke="none">(scanner bed </text>
      <text x="585.9658" xml:space="preserve" y="834.6226" clip-path="url(#clipPath2)" stroke="none">bipolar stepper)</text>
    </g>
    <g fill="red" transform="matrix(1,0,0,1,-69,176)" stroke="red">
      <rect x="571" y="517" clip-path="url(#clipPath2)" width="155" rx="1.5" ry="1.5" height="137" stroke="none"/>
      <path fill="url(#linearGradient12)" d="M571.75 520 Q571.75 517.75 574 517.75 L668.75 517.75 Q671 517.75 671 520 Q671 522.25 623.625 574.05 Q576.25 625.85 574 625.85 Q571.75 625.85 571.75 623.6 Z" clip-path="url(#clipPath2)" stroke="none"/>
    </g>
    <g font-size="18" stroke-linecap="butt" transform="matrix(1,0,0,1,-69,176)" fill="white" font-family="sans-serif" stroke="white" stroke-miterlimit="1.45">
      <text x="600.4897" xml:space="preserve" y="581.5449" clip-path="url(#clipPath2)" stroke="none">Motor driver</text>
      <text x="607.9912" xml:space="preserve" y="603.5967" clip-path="url(#clipPath2)" stroke="none">(H-bridge)</text>
    </g>
    <g fill="gray" transform="matrix(1,0,0,1,-69,176)" stroke="gray">
      <rect x="794" y="-143" clip-path="url(#clipPath2)" width="155" rx="1.5" ry="1.5" height="137" stroke="none"/>
      <path fill="url(#linearGradient13)" d="M794.75 -140 Q794.75 -142.25 797 -142.25 L891.75 -142.25 Q894 -142.25 894 -140 Q894 -137.75 846.625 -85.95 Q799.25 -34.15 797 -34.15 Q794.75 -34.15 794.75 -36.4 Z" clip-path="url(#clipPath2)" stroke="none"/>
    </g>
    <g font-size="17" stroke-linecap="butt" transform="matrix(1,0,0,1,-69,176)" fill="white" font-family="sans-serif" stroke="white" stroke-miterlimit="1.45">
      <text x="803.4668" xml:space="preserve" y="-78.2354" clip-path="url(#clipPath2)" stroke="none">12v 2A Laser alim</text>
      <text x="828.9751" xml:space="preserve" y="-57.4087" clip-path="url(#clipPath2)" stroke="none">(dedicated)</text>
    </g>
    <g fill="rgb(255,102,0)" transform="matrix(1,0,0,1,-69,176)" stroke="rgb(255,102,0)">
      <rect x="125" y="737" clip-path="url(#clipPath2)" width="155" rx="1.5" ry="1.5" height="137" stroke="none"/>
      <path fill="url(#linearGradient14)" d="M125.75 740 Q125.75 737.75 128 737.75 L222.75 737.75 Q225 737.75 225 740 Q225 742.25 177.625 794.05 Q130.25 845.85 128 845.85 Q125.75 845.85 125.75 843.6 Z" clip-path="url(#clipPath2)" stroke="none"/>
    </g>
    <g font-size="18" stroke-linecap="butt" transform="matrix(1,0,0,1,-69,176)" fill="white" font-family="sans-serif" stroke="white" stroke-miterlimit="1.45">
      <text x="144.9668" xml:space="preserve" y="790.519" clip-path="url(#clipPath2)" stroke="none">X axis header </text>
      <text x="172.481" xml:space="preserve" y="812.5708" clip-path="url(#clipPath2)" stroke="none">stopper</text>
      <text x="154.4941" xml:space="preserve" y="834.6226" clip-path="url(#clipPath2)" stroke="none">(tact switch)</text>
    </g>
    <g fill="teal" transform="matrix(1,0,0,1,-69,176)" stroke="teal">
      <rect x="125" y="517" clip-path="url(#clipPath2)" width="155" rx="1.5" ry="1.5" height="137" stroke="none"/>
      <path fill="url(#linearGradient15)" d="M125.75 520 Q125.75 517.75 128 517.75 L222.75 517.75 Q225 517.75 225 520 Q225 522.25 177.625 574.05 Q130.25 625.85 128 625.85 Q125.75 625.85 125.75 623.6 Z" clip-path="url(#clipPath2)" stroke="none"/>
    </g>
    <g font-size="18" stroke-linecap="butt" transform="matrix(1,0,0,1,-69,176)" fill="white" font-family="sans-serif" stroke="white" stroke-miterlimit="1.45">
      <text x="132.4731" xml:space="preserve" y="570.519" clip-path="url(#clipPath2)" stroke="none">LCD and Joystick</text>
      <text x="124.4575" xml:space="preserve" y="592.5708" clip-path="url(#clipPath2)" stroke="none">(display and adjust)</text>
      <text x="159.9697" xml:space="preserve" y="614.6226" clip-path="url(#clipPath2)" stroke="none">Attiny2313</text>
    </g>
    <g stroke-linecap="butt" transform="matrix(1,0,0,1,-69,176)" stroke-miterlimit="1.45">
      <path fill="none" d="M280.0001 145.5 L340.0256 145.5" clip-path="url(#clipPath2)"/>
      <path d="M348.0256 145.5 L336.0256 140.5 L339.0256 145.5 L336.0256 150.5 Z" clip-path="url(#clipPath2)" stroke="none"/>
      <path fill="none" d="M503.0001 145.5 L563.0256 145.5" clip-path="url(#clipPath2)"/>
      <path d="M571.0256 145.5 L559.0256 140.5 L562.0256 145.5 L559.0256 150.5 Z" clip-path="url(#clipPath2)" stroke="none"/>
      <path fill="none" d="M425.5 214.0083 L425.5 288.9663" clip-path="url(#clipPath2)"/>
      <path d="M425.5 296.9663 L430.5 284.9663 L425.5 287.9663 L420.5 284.9663 Z" clip-path="url(#clipPath2)" stroke="none"/>
      <text x="336.4727" xml:space="preserve" y="260.2139" font-family="sans-serif" clip-path="url(#clipPath2)" stroke="none">High voltage for motor</text>
      <path fill="none" d="M579.0575 214.0083 L500.6446 291.3664" clip-path="url(#clipPath2)"/>
      <path d="M494.9495 296.9848 L507.0036 292.1165 L501.3564 290.6641 L499.9806 284.9978 Z" clip-path="url(#clipPath2)" stroke="none"/>
      <text x="507.9873" xml:space="preserve" y="260.2139" font-family="sans-serif" clip-path="url(#clipPath2)" stroke="none">5v for logic</text>
      <path fill="none" d="M347.9999 365.5 L287.9744 365.5" clip-path="url(#clipPath2)"/>
      <path d="M279.9744 365.5 L291.9744 370.5 L288.9744 365.5 L291.9744 360.5 Z" clip-path="url(#clipPath2)" stroke="none"/>
      <path fill="none" d="M648.5 214.0083 L648.5 288.9663" clip-path="url(#clipPath2)"/>
      <path d="M648.5 296.9663 L653.5 284.9663 L648.5 287.9663 L643.5 284.9663 Z" clip-path="url(#clipPath2)" stroke="none"/>
      <text x="619.4873" xml:space="preserve" y="260.2139" font-family="sans-serif" clip-path="url(#clipPath2)" stroke="none">5v for logic</text>
      <path fill="none" d="M570.9999 365.5 L510.9744 365.5" clip-path="url(#clipPath2)"/>
      <path d="M502.9744 365.5 L514.9744 370.5 L511.9744 365.5 L514.9744 360.5 Z" clip-path="url(#clipPath2)" stroke="none"/>
      <text x="522.3369" xml:space="preserve" y="370.2139" font-family="sans-serif" clip-path="url(#clipPath2)" stroke="none">PWM</text>
      <path fill="none" d="M847.8444 365.5 L734.0282 365.5" clip-path="url(#clipPath2)"/>
      <path d="M726.0282 365.5 L738.0282 370.5 L735.0282 365.5 L738.0282 360.5 Z" clip-path="url(#clipPath2)" stroke="none"/>
      <path fill="none" d="M717.9425 296.9917 L796.3555 219.6337" clip-path="url(#clipPath2)"/>
      <path d="M802.0505 214.0152 L789.9965 218.8835 L795.6436 220.336 L797.0195 226.0022 Z" clip-path="url(#clipPath2)" stroke="none"/>
      <path fill="none" d="M802.0575 76.9917 L723.6445 -0.3664" clip-path="url(#clipPath2)"/>
      <path d="M717.9495 -5.9848 L722.9805 6.0022 L724.3564 0.3359 L730.0036 -1.1165 Z" clip-path="url(#clipPath2)" stroke="none"/>
      <path fill="none" d="M579.0575 434.0083 L500.6446 511.3664" clip-path="url(#clipPath2)"/>
      <path d="M494.9495 516.9848 L507.0036 512.1166 L501.3564 510.6641 L499.9805 504.9978 Z" clip-path="url(#clipPath2)" stroke="none"/>
      <text x="466.5728" xml:space="preserve" y="492.6621" font-family="sans-serif" clip-path="url(#clipPath2)" stroke="none">Followup to control</text>
      <text x="478.2447" xml:space="preserve" y="507.3633" font-family="sans-serif" clip-path="url(#clipPath2)" stroke="none">X axis position</text>
      <path fill="none" d="M425.5 654.0083 L425.5 728.9663" clip-path="url(#clipPath2)"/>
      <path d="M425.5 736.9663 L430.5 724.9663 L425.5 727.9663 L420.5 724.9663 Z" clip-path="url(#clipPath2)" stroke="none"/>
      <path fill="none" d="M648.5 434.0083 L648.5 508.9663" clip-path="url(#clipPath2)"/>
      <path d="M648.5 516.9663 L653.5 504.9663 L648.5 507.9663 L643.5 504.9663 Z" clip-path="url(#clipPath2)" stroke="none"/>
      <text x="674.5488" xml:space="preserve" y="472.8633" font-family="sans-serif" clip-path="url(#clipPath2)" stroke="none">Stepper motor</text>
      <text x="677.5488" xml:space="preserve" y="487.5645" font-family="sans-serif" clip-path="url(#clipPath2)" stroke="none">bipolar 2coils</text>
      <path fill="none" d="M722.1415 213.9988 L771.7675 260.1591 L771.7675 521.4952 L733.0936 541.576" clip-path="url(#clipPath2)"/>
      <path d="M725.9937 545.2626 L738.9477 544.1702 L733.9811 541.1152 L734.3395 535.2953 Z" clip-path="url(#clipPath2)" stroke="none"/>
      <text x="761.7451" xml:space="preserve" y="537.0845" font-family="sans-serif" clip-path="url(#clipPath2)" stroke="none">12v for stepper</text>
      <text x="772.7548" xml:space="preserve" y="551.7856" font-family="sans-serif" clip-path="url(#clipPath2)" stroke="none">5v for logic</text>
      <path fill="none" d="M648.5 654.0083 L648.5 728.9663" clip-path="url(#clipPath2)"/>
      <path d="M648.5 736.9663 L653.5 724.9663 L648.5 727.9663 L643.5 724.9663 Z" clip-path="url(#clipPath2)" stroke="none"/>
      <path fill="none" d="M871.5 -5.9917 L871.5 68.9663" clip-path="url(#clipPath2)"/>
      <path d="M871.5 76.9663 L876.5 64.9663 L871.5 67.9663 L866.5 64.9663 Z" clip-path="url(#clipPath2)" stroke="none"/>
      <path fill="none" d="M356.0575 654.0083 L277.6446 731.3663" clip-path="url(#clipPath2)"/>
      <path d="M271.9496 736.9848 L284.0036 732.1165 L278.3564 730.6641 L276.9805 724.9977 Z" clip-path="url(#clipPath2)" stroke="none"/>
      <path fill="none" d="M571.0032 408.3151 L450.1701 475.0724 L302.4621 475.0724 L269.8815 511.0641" clip-path="url(#clipPath2)"/>
      <path d="M264.5126 516.995 L276.2727 511.4542 L270.5526 510.3228 L268.8591 504.7431 Z" clip-path="url(#clipPath2)" stroke="none"/>
    </g>
  </g>
</svg>
